<?xml version="1.0" standalone="no"?><!DOCTYPE svg PUBLIC "-//W3C//DTD SVG 1.1//EN" "http://www.w3.org/Graphics/SVG/1.1/DTD/svg11.dtd"><svg t="1588577883745" class="icon" viewBox="0 0 1024 1024" version="1.1" xmlns="http://www.w3.org/2000/svg" p-id="3403" xmlns:xlink="http://www.w3.org/1999/xlink" width="200" height="200"><defs><style type="text/css"></style></defs><path d="M451.21536 599.57248a31.5392 31.5392 0 0 0 22.3232 54.0672 31.70304 31.70304 0 0 0 22.44608-9.25696l119.52128-119.52128a31.9488 31.9488 0 0 0 0-45.056L495.98464 360.448a31.62112 31.62112 0 0 0-44.76928 0 31.62112 31.62112 0 0 0 0 44.76928l65.37216 65.41312-423.36256 0.08192a31.66208 31.66208 0 0 0-31.70304 31.66208c0 17.53088 14.25408 31.78496 31.70304 31.78496l423.36256 0.08192-65.37216 65.37216z" p-id="3404"></path><path d="M927.1296 327.02464a449.16736 449.16736 0 0 0-96.54272-143.23712A449.04448 449.04448 0 0 0 512 51.77344c-71.51616 0-140.00128 16.26112-203.44832 48.41472a453.14048 453.14048 0 0 0-155.15648 129.51552 31.58016 31.58016 0 0 0 5.98016 44.35968c13.9264 10.6496 33.792 7.90528 44.35968-5.98016a390.3488 390.3488 0 0 1 133.5296-111.32928A382.68928 382.68928 0 0 1 512 115.13856a385.18784 385.18784 0 0 1 273.77664 113.33632 386.6624 386.6624 0 0 1 113.4592 273.85856c0 52.26496-10.24 102.97344-30.39232 150.65088a385.18784 385.18784 0 0 1-82.98496 123.12576A386.6624 386.6624 0 0 1 512 889.56928a382.93504 382.93504 0 0 1-174.8992-41.73824 391.168 391.168 0 0 1-133.5296-111.32928 31.66208 31.66208 0 0 0-50.3808 38.37952 454.41024 454.41024 0 0 0 155.36128 129.55648c63.44704 32.11264 131.8912 48.37376 203.44832 48.37376a448.34816 448.34816 0 0 0 318.58688-131.8912A449.04448 449.04448 0 0 0 962.56 502.33344c0-60.78464-11.8784-119.84896-35.47136-175.3088z" p-id="3405"></path></svg>